<svg width="41" height="40" viewBox="0 0 41 40" fill="none" xmlns="http://www.w3.org/2000/svg">
<ellipse cx="20.3459" cy="20.004" rx="20.0417" ry="20.004" fill="#00214D"/>
<path d="M25.3562 9.02539H15.3354C12.5682 9.02539 10.325 11.264 10.325 14.0254V24.0254C10.325 26.7868 12.5682 29.0254 15.3354 29.0254H25.3562C28.1234 29.0254 30.3666 26.7868 30.3666 24.0254V14.0254C30.3666 11.264 28.1234 9.02539 25.3562 9.02539Z" stroke="white" stroke-width="2" stroke-linecap="round" stroke-linejoin="round"/>
<path d="M24.3542 18.3952C24.4778 19.2274 24.3354 20.0774 23.9471 20.8242C23.5588 21.571 22.9444 22.1766 22.1913 22.5549C21.4382 22.9331 20.5848 23.0648 19.7524 22.9311C18.92 22.7975 18.151 22.4053 17.5549 21.8104C16.9587 21.2154 16.5657 20.4481 16.4318 19.6174C16.2978 18.7868 16.4298 17.9351 16.8088 17.1836C17.1879 16.4321 17.7947 15.8189 18.5431 15.4314C19.2914 15.0439 20.1432 14.9018 20.9772 15.0252C21.8278 15.1511 22.6154 15.5467 23.2235 16.1535C23.8316 16.7604 24.228 17.5463 24.3542 18.3952Z" stroke="white" stroke-width="2" stroke-linecap="round" stroke-linejoin="round"/>
<path d="M25.8572 13.5254H25.8672" stroke="white" stroke-width="2" stroke-linecap="round" stroke-linejoin="round"/>
</svg>
